<svg xmlns="http://www.w3.org/2000/svg" width="454" height="142" viewBox="0 0 453.6 141.7"><style>.a{fill:#FFF;}</style><path d="M0.4 0.4h453.6v141.7H0.4V0.4z" fill="#ED1C29"/><path d="M45.7 38.4c12.5-19.9 34.2-22.5 60.6-22.5 26.3 0 56.4 1 56.4 33.4 0 15-6.3 39.5-17.6 57.1 -11.3 18-38.7 19.3-59.5 19.3 -32.3 0-56.4-1-56.4-33.4C29.3 77.4 35.4 55 45.7 38.4zM82.8 60.5c-3.9 7.4-7.3 19.2-7.3 24.4 0 10.8 7.3 13.2 13.2 13.2 10.6 0 15-1.9 19.3-9.9 1.6-2.9 7.1-14.1 7.1-25.9 0-7.6-4.1-12.2-14.1-12.2C94 50.2 88 50.6 82.8 60.5z" class="a"/><path d="M188.3 18.9h45.4l-11.2 41.3h0.3l32.3-41.3h56.4l-51.9 55.4 21.4 48.4h-48.8l-15.3-41.7h-0.3l-10.2 41.7h-44.8L188.3 18.9z" class="a"/><path d="M296.4 94.8c16.6 2 33 3.3 49.7 3.3 4.8 0 15 0 15-6.8 0-5.1-2.6-6.1-28.6-6.1 -13.4 0-28.1-4.5-28.1-20.8 0-22.4 11.6-40.6 29.1-45.5 9.7-2.8 23.8-3.1 34.6-3.1 14.5 0 37.9 0.7 59.2 3.9l-9.2 32.1c-14.1-1.7-28.1-3.2-42.3-3.2 -17.3 0-21.4 2.5-21.4 7.4 0 4.2 2.9 5.4 25.7 5.4 16.6 0 31.1 0.7 31.1 22.5 0 8.1-3.8 19.5-6.8 24.4 -9 14.5-23.6 17.3-52.2 17.3 -23.3 0-43-1.3-62.4-4.8L296.4 94.8z" class="a"/><path d="M434.4 113.7c0 1-0.1 2.8-1.1 5 -2 4.3-6.3 7.2-11.1 7.2 -6.7-0.1-12.1-5.5-12.1-12.1s5.4-12.1 12.1-12.1C429 101.6 434.4 107.1 434.4 113.7zM412.1 113.7c0 5.6 4.6 10.2 10.2 10.2 5.6 0 10.2-4.6 10.2-10.2s-4.6-10.2-10.2-10.2C416.7 103.5 412.1 108.1 412.1 113.7zM423.5 107.1c0.6 0 2.8-0.2 4.2 1.6 0.2 0.3 0.7 1 0.7 2 0 0.5-0.1 1.1-0.6 1.9 -1 1.7-2.9 1.6-3.5 1.6l4.1 6.2h-2.4l-3.7-5.9h-2.8v5.8h-1.9v-13.2H423.5zM419.5 112.8h4.2c0.3 0 1.7 0.1 2.4-0.9 0.1-0.2 0.3-0.6 0.3-1.1 0-0.2 0-0.7-0.4-1.2 -0.7-1-2-1-2.3-1h-4.2V112.8z" class="a"/></svg>